<?xml version='1.0' encoding='UTF-8'?>
<svg width="90mm" height="90mm" version="1.1" viewBox="0 0 90 90" xmlns="http://www.w3.org/2000/svg"><path d="M8,8H10V10H8zM10,8H12V10H10zM12,8H14V10H12zM14,8H16V10H14zM16,8H18V10H16zM18,8H20V10H18zM20,8H22V10H20zM24,8H26V10H24zM28,8H30V10H28zM34,8H36V10H34zM46,8H48V10H46zM50,8H52V10H50zM56,8H58V10H56zM58,8H60V10H58zM62,8H64V10H62zM68,8H70V10H68zM70,8H72V10H70zM72,8H74V10H72zM74,8H76V10H74zM76,8H78V10H76zM78,8H80V10H78zM80,8H82V10H80zM8,10H10V12H8zM20,10H22V12H20zM24,10H26V12H24zM30,10H32V12H30zM32,10H34V12H32zM38,10H40V12H38zM40,10H42V12H40zM44,10H46V12H44zM56,10H58V12H56zM62,10H64V12H62zM64,10H66V12H64zM68,10H70V12H68zM80,10H82V12H80zM8,12H10V14H8zM12,12H14V14H12zM14,12H16V14H14zM16,12H18V14H16zM20,12H22V14H20zM26,12H28V14H26zM28,12H30V14H28zM32,12H34V14H32zM36,12H38V14H36zM38,12H40V14H38zM46,12H48V14H46zM50,12H52V14H50zM52,12H54V14H52zM54,12H56V14H54zM56,12H58V14H56zM60,12H62V14H60zM62,12H64V14H62zM68,12H70V14H68zM72,12H74V14H72zM74,12H76V14H74zM76,12H78V14H76zM80,12H82V14H80zM8,14H10V16H8zM12,14H14V16H12zM14,14H16V16H14zM16,14H18V16H16zM20,14H22V16H20zM24,14H26V16H24zM26,14H28V16H26zM30,14H32V16H30zM32,14H34V16H32zM36,14H38V16H36zM40,14H42V16H40zM42,14H44V16H42zM44,14H46V16H44zM48,14H50V16H48zM56,14H58V16H56zM60,14H62V16H60zM68,14H70V16H68zM72,14H74V16H72zM74,14H76V16H74zM76,14H78V16H76zM80,14H82V16H80zM8,16H10V18H8zM12,16H14V18H12zM14,16H16V18H14zM16,16H18V18H16zM20,16H22V18H20zM24,16H26V18H24zM26,16H28V18H26zM28,16H30V18H28zM30,16H32V18H30zM38,16H40V18H38zM42,16H44V18H42zM44,16H46V18H44zM52,16H54V18H52zM60,16H62V18H60zM62,16H64V18H62zM68,16H70V18H68zM72,16H74V18H72zM74,16H76V18H74zM76,16H78V18H76zM80,16H82V18H80zM8,18H10V20H8zM20,18H22V20H20zM24,18H26V20H24zM26,18H28V20H26zM28,18H30V20H28zM32,18H34V20H32zM38,18H40V20H38zM42,18H44V20H42zM48,18H50V20H48zM50,18H52V20H50zM54,18H56V20H54zM62,18H64V20H62zM64,18H66V20H64zM68,18H70V20H68zM80,18H82V20H80zM8,20H10V22H8zM10,20H12V22H10zM12,20H14V22H12zM14,20H16V22H14zM16,20H18V22H16zM18,20H20V22H18zM20,20H22V22H20zM24,20H26V22H24zM28,20H30V22H28zM32,20H34V22H32zM36,20H38V22H36zM40,20H42V22H40zM44,20H46V22H44zM48,20H50V22H48zM52,20H54V22H52zM56,20H58V22H56zM60,20H62V22H60zM64,20H66V22H64zM68,20H70V22H68zM70,20H72V22H70zM72,20H74V22H72zM74,20H76V22H74zM76,20H78V22H76zM78,20H80V22H78zM80,20H82V22H80zM28,22H30V24H28zM32,22H34V24H32zM38,22H40V24H38zM40,22H42V24H40zM48,22H50V24H48zM50,22H52V24H50zM52,22H54V24H52zM58,22H60V24H58zM14,24H16V26H14zM20,24H22V26H20zM26,24H28V26H26zM28,24H30V26H28zM30,24H32V26H30zM32,24H34V26H32zM34,24H36V26H34zM38,24H40V26H38zM40,24H42V26H40zM42,24H44V26H42zM46,24H48V26H46zM50,24H52V26H50zM56,24H58V26H56zM60,24H62V26H60zM62,24H64V26H62zM70,24H72V26H70zM72,24H74V26H72zM74,24H76V26H74zM78,24H80V26H78zM80,24H82V26H80zM16,26H18V28H16zM18,26H20V28H18zM26,26H28V28H26zM28,26H30V28H28zM30,26H32V28H30zM32,26H34V28H32zM34,26H36V28H34zM36,26H38V28H36zM38,26H40V28H38zM44,26H46V28H44zM46,26H48V28H46zM48,26H50V28H48zM52,26H54V28H52zM54,26H56V28H54zM62,26H64V28H62zM66,26H68V28H66zM68,26H70V28H68zM70,26H72V28H70zM76,26H78V28H76zM80,26H82V28H80zM8,28H10V30H8zM14,28H16V30H14zM18,28H20V30H18zM20,28H22V30H20zM22,28H24V30H22zM24,28H26V30H24zM32,28H34V30H32zM36,28H38V30H36zM38,28H40V30H38zM40,28H42V30H40zM42,28H44V30H42zM48,28H50V30H48zM50,28H52V30H50zM54,28H56V30H54zM56,28H58V30H56zM64,28H66V30H64zM68,28H70V30H68zM72,28H74V30H72zM76,28H78V30H76zM78,28H80V30H78zM80,28H82V30H80zM10,30H12V32H10zM12,30H14V32H12zM18,30H20V32H18zM30,30H32V32H30zM36,30H38V32H36zM38,30H40V32H38zM40,30H42V32H40zM44,30H46V32H44zM46,30H48V32H46zM50,30H52V32H50zM54,30H56V32H54zM56,30H58V32H56zM58,30H60V32H58zM62,30H64V32H62zM10,32H12V34H10zM14,32H16V34H14zM20,32H22V34H20zM22,32H24V34H22zM28,32H30V34H28zM30,32H32V34H30zM34,32H36V34H34zM40,32H42V34H40zM42,32H44V34H42zM44,32H46V34H44zM54,32H56V34H54zM58,32H60V34H58zM64,32H66V34H64zM66,32H68V34H66zM68,32H70V34H68zM78,32H80V34H78zM80,32H82V34H80zM8,34H10V36H8zM12,34H14V36H12zM14,34H16V36H14zM18,34H20V36H18zM24,34H26V36H24zM28,34H30V36H28zM30,34H32V36H30zM32,34H34V36H32zM34,34H36V36H34zM36,34H38V36H36zM38,34H40V36H38zM42,34H44V36H42zM44,34H46V36H44zM50,34H52V36H50zM52,34H54V36H52zM54,34H56V36H54zM56,34H58V36H56zM60,34H62V36H60zM68,34H70V36H68zM70,34H72V36H70zM74,34H76V36H74zM78,34H80V36H78zM80,34H82V36H80zM8,36H10V38H8zM10,36H12V38H10zM12,36H14V38H12zM14,36H16V38H14zM18,36H20V38H18zM20,36H22V38H20zM24,36H26V38H24zM26,36H28V38H26zM28,36H30V38H28zM30,36H32V38H30zM32,36H34V38H32zM36,36H38V38H36zM48,36H50V38H48zM50,36H52V38H50zM52,36H54V38H52zM60,36H62V38H60zM64,36H66V38H64zM68,36H70V38H68zM72,36H74V38H72zM76,36H78V38H76zM80,36H82V38H80zM10,38H12V40H10zM12,38H14V40H12zM16,38H18V40H16zM18,38H20V40H18zM22,38H24V40H22zM34,38H36V40H34zM38,38H40V40H38zM40,38H42V40H40zM44,38H46V40H44zM46,38H48V40H46zM52,38H54V40H52zM58,38H60V40H58zM60,38H62V40H60zM64,38H66V40H64zM68,38H70V40H68zM72,38H74V40H72zM12,40H14V42H12zM20,40H22V42H20zM22,40H24V42H22zM24,40H26V42H24zM32,40H34V42H32zM36,40H38V42H36zM38,40H40V42H38zM42,40H44V42H42zM46,40H48V42H46zM52,40H54V42H52zM66,40H68V42H66zM68,40H70V42H68zM70,40H72V42H70zM74,40H76V42H74zM76,40H78V42H76zM78,40H80V42H78zM14,42H16V44H14zM18,42H20V44H18zM24,42H26V44H24zM30,42H32V44H30zM34,42H36V44H34zM38,42H40V44H38zM42,42H44V44H42zM52,42H54V44H52zM54,42H56V44H54zM60,42H62V44H60zM68,42H70V44H68zM72,42H74V44H72zM74,42H76V44H74zM80,42H82V44H80zM10,44H12V46H10zM18,44H20V46H18zM20,44H22V46H20zM22,44H24V46H22zM28,44H30V46H28zM30,44H32V46H30zM32,44H34V46H32zM34,44H36V46H34zM36,44H38V46H36zM40,44H42V46H40zM42,44H44V46H42zM48,44H50V46H48zM54,44H56V46H54zM56,44H58V46H56zM58,44H60V46H58zM66,44H68V46H66zM68,44H70V46H68zM70,44H72V46H70zM72,44H74V46H72zM74,44H76V46H74zM76,44H78V46H76zM78,44H80V46H78zM80,44H82V46H80zM12,46H14V48H12zM16,46H18V48H16zM18,46H20V48H18zM22,46H24V48H22zM36,46H38V48H36zM48,46H50V48H48zM52,46H54V48H52zM54,46H56V48H54zM62,46H64V48H62zM64,46H66V48H64zM66,46H68V48H66zM76,46H78V48H76zM78,46H80V48H78zM80,46H82V48H80zM12,48H14V50H12zM16,48H18V50H16zM20,48H22V50H20zM22,48H24V50H22zM26,48H28V50H26zM28,48H30V50H28zM30,48H32V50H30zM40,48H42V50H40zM44,48H46V50H44zM46,48H48V50H46zM50,48H52V50H50zM58,48H60V50H58zM60,48H62V50H60zM64,48H66V50H64zM68,48H70V50H68zM70,48H72V50H70zM72,48H74V50H72zM74,48H76V50H74zM80,48H82V50H80zM14,50H16V52H14zM22,50H24V52H22zM26,50H28V52H26zM30,50H32V52H30zM32,50H34V52H32zM34,50H36V52H34zM36,50H38V52H36zM38,50H40V52H38zM42,50H44V52H42zM44,50H46V52H44zM46,50H48V52H46zM50,50H52V52H50zM52,50H54V52H52zM58,50H60V52H58zM66,50H68V52H66zM68,50H70V52H68zM74,50H76V52H74zM76,50H78V52H76zM78,50H80V52H78zM80,50H82V52H80zM12,52H14V54H12zM14,52H16V54H14zM16,52H18V54H16zM18,52H20V54H18zM20,52H22V54H20zM24,52H26V54H24zM26,52H28V54H26zM34,52H36V54H34zM42,52H44V54H42zM46,52H48V54H46zM48,52H50V54H48zM50,52H52V54H50zM54,52H56V54H54zM56,52H58V54H56zM58,52H60V54H58zM60,52H62V54H60zM66,52H68V54H66zM70,52H72V54H70zM72,52H74V54H72zM74,52H76V54H74zM80,52H82V54H80zM10,54H12V56H10zM12,54H14V56H12zM14,54H16V56H14zM16,54H18V56H16zM18,54H20V56H18zM24,54H26V56H24zM28,54H30V56H28zM36,54H38V56H36zM38,54H40V56H38zM40,54H42V56H40zM44,54H46V56H44zM46,54H48V56H46zM50,54H52V56H50zM56,54H58V56H56zM58,54H60V56H58zM66,54H68V56H66zM68,54H70V56H68zM72,54H74V56H72zM78,54H80V56H78zM12,56H14V58H12zM20,56H22V58H20zM26,56H28V58H26zM32,56H34V58H32zM34,56H36V58H34zM36,56H38V58H36zM40,56H42V58H40zM44,56H46V58H44zM52,56H54V58H52zM54,56H56V58H54zM60,56H62V58H60zM62,56H64V58H62zM64,56H66V58H64zM68,56H70V58H68zM10,58H12V60H10zM14,58H16V60H14zM18,58H20V60H18zM22,58H24V60H22zM24,58H26V60H24zM28,58H30V60H28zM30,58H32V60H30zM36,58H38V60H36zM38,58H40V60H38zM46,58H48V60H46zM54,58H56V60H54zM60,58H62V60H60zM62,58H64V60H62zM66,58H68V60H66zM70,58H72V60H70zM74,58H76V60H74zM76,58H78V60H76zM80,58H82V60H80zM8,60H10V62H8zM12,60H14V62H12zM18,60H20V62H18zM20,60H22V62H20zM22,60H24V62H22zM26,60H28V62H26zM30,60H32V62H30zM34,60H36V62H34zM48,60H50V62H48zM50,60H52V62H50zM52,60H54V62H52zM54,60H56V62H54zM58,60H60V62H58zM62,60H64V62H62zM64,60H66V62H64zM66,60H68V62H66zM68,60H70V62H68zM70,60H72V62H70zM72,60H74V62H72zM74,60H76V62H74zM80,60H82V62H80zM10,62H12V64H10zM14,62H16V64H14zM18,62H20V64H18zM22,62H24V64H22zM26,62H28V64H26zM28,62H30V64H28zM30,62H32V64H30zM34,62H36V64H34zM36,62H38V64H36zM38,62H40V64H38zM42,62H44V64H42zM44,62H46V64H44zM50,62H52V64H50zM52,62H54V64H52zM54,62H56V64H54zM58,62H60V64H58zM60,62H62V64H60zM64,62H66V64H64zM68,62H70V64H68zM72,62H74V64H72zM8,64H10V66H8zM10,64H12V66H10zM14,64H16V66H14zM20,64H22V66H20zM22,64H24V66H22zM24,64H26V66H24zM28,64H30V66H28zM32,64H34V66H32zM34,64H36V66H34zM44,64H46V66H44zM48,64H50V66H48zM50,64H52V66H50zM52,64H54V66H52zM62,64H64V66H62zM64,64H66V66H64zM66,64H68V66H66zM68,64H70V66H68zM70,64H72V66H70zM72,64H74V66H72zM76,64H78V66H76zM24,66H26V68H24zM26,66H28V68H26zM30,66H32V68H30zM32,66H34V68H32zM36,66H38V68H36zM46,66H48V68H46zM54,66H56V68H54zM56,66H58V68H56zM60,66H62V68H60zM64,66H66V68H64zM72,66H74V68H72zM80,66H82V68H80zM8,68H10V70H8zM10,68H12V70H10zM12,68H14V70H12zM14,68H16V70H14zM16,68H18V70H16zM18,68H20V70H18zM20,68H22V70H20zM28,68H30V70H28zM34,68H36V70H34zM38,68H40V70H38zM40,68H42V70H40zM46,68H48V70H46zM50,68H52V70H50zM52,68H54V70H52zM56,68H58V70H56zM58,68H60V70H58zM62,68H64V70H62zM64,68H66V70H64zM68,68H70V70H68zM72,68H74V70H72zM76,68H78V70H76zM78,68H80V70H78zM80,68H82V70H80zM8,70H10V72H8zM20,70H22V72H20zM42,70H44V72H42zM44,70H46V72H44zM48,70H50V72H48zM50,70H52V72H50zM52,70H54V72H52zM54,70H56V72H54zM56,70H58V72H56zM64,70H66V72H64zM72,70H74V72H72zM76,70H78V72H76zM80,70H82V72H80zM8,72H10V74H8zM12,72H14V74H12zM14,72H16V74H14zM16,72H18V74H16zM20,72H22V74H20zM26,72H28V74H26zM28,72H30V74H28zM34,72H36V74H34zM38,72H40V74H38zM40,72H42V74H40zM42,72H44V74H42zM44,72H46V74H44zM46,72H48V74H46zM52,72H54V74H52zM54,72H56V74H54zM56,72H58V74H56zM58,72H60V74H58zM60,72H62V74H60zM64,72H66V74H64zM66,72H68V74H66zM68,72H70V74H68zM70,72H72V74H70zM72,72H74V74H72zM74,72H76V74H74zM8,74H10V76H8zM12,74H14V76H12zM14,74H16V76H14zM16,74H18V76H16zM20,74H22V76H20zM24,74H26V76H24zM28,74H30V76H28zM38,74H40V76H38zM42,74H44V76H42zM46,74H48V76H46zM48,74H50V76H48zM50,74H52V76H50zM54,74H56V76H54zM56,74H58V76H56zM66,74H68V76H66zM70,74H72V76H70zM72,74H74V76H72zM74,74H76V76H74zM76,74H78V76H76zM78,74H80V76H78zM80,74H82V76H80zM8,76H10V78H8zM12,76H14V78H12zM14,76H16V78H14zM16,76H18V78H16zM20,76H22V78H20zM28,76H30V78H28zM32,76H34V78H32zM34,76H36V78H34zM40,76H42V78H40zM42,76H44V78H42zM46,76H48V78H46zM48,76H50V78H48zM50,76H52V78H50zM54,76H56V78H54zM56,76H58V78H56zM58,76H60V78H58zM60,76H62V78H60zM64,76H66V78H64zM66,76H68V78H66zM72,76H74V78H72zM74,76H76V78H74zM80,76H82V78H80zM8,78H10V80H8zM20,78H22V80H20zM26,78H28V80H26zM30,78H32V80H30zM32,78H34V80H32zM38,78H40V80H38zM44,78H46V80H44zM54,78H56V80H54zM56,78H58V80H56zM58,78H60V80H58zM62,78H64V80H62zM64,78H66V80H64zM66,78H68V80H66zM68,78H70V80H68zM72,78H74V80H72zM8,80H10V82H8zM10,80H12V82H10zM12,80H14V82H12zM14,80H16V82H14zM16,80H18V82H16zM18,80H20V82H18zM20,80H22V82H20zM26,80H28V82H26zM28,80H30V82H28zM32,80H34V82H32zM34,80H36V82H34zM36,80H38V82H36zM38,80H40V82H38zM40,80H42V82H40zM46,80H48V82H46zM50,80H52V82H50zM52,80H54V82H52zM54,80H56V82H54zM58,80H60V82H58zM62,80H64V82H62zM64,80H66V82H64zM78,80H80V82H78zM80,80H82V82H80z" id="qr-path" fill="#561414" fill-opacity="1" fill-rule="nonzero" stroke="none"/></svg>